<svg id="visual" viewBox="0 0 960 540" width="960" height="540" xmlns="http://www.w3.org/2000/svg" xmlns:xlink="http://www.w3.org/1999/xlink" version="1.1"><rect x="0" y="0" width="960" height="540" fill="#1c1d25"></rect><path d="M0 378L22.8 381.8C45.7 385.7 91.3 393.3 137 394.2C182.7 395 228.3 389 274 376.3C319.7 363.7 365.3 344.3 411.2 340.8C457 337.3 503 349.7 548.8 352.7C594.7 355.7 640.3 349.3 686 353C731.7 356.7 777.3 370.3 823 372.7C868.7 375 914.3 366 937.2 361.5L960 357L960 541L937.2 541C914.3 541 868.7 541 823 541C777.3 541 731.7 541 686 541C640.3 541 594.7 541 548.8 541C503 541 457 541 411.2 541C365.3 541 319.7 541 274 541C228.3 541 182.7 541 137 541C91.3 541 45.7 541 22.8 541L0 541Z" fill="#ed5617"></path><path d="M0 374L22.8 375.5C45.7 377 91.3 380 137 386.7C182.7 393.3 228.3 403.7 274 400.2C319.7 396.7 365.3 379.3 411.2 372C457 364.7 503 367.3 548.8 378C594.7 388.7 640.3 407.3 686 406.3C731.7 405.3 777.3 384.7 823 381.8C868.7 379 914.3 394 937.2 401.5L960 409L960 541L937.2 541C914.3 541 868.7 541 823 541C777.3 541 731.7 541 686 541C640.3 541 594.7 541 548.8 541C503 541 457 541 411.2 541C365.3 541 319.7 541 274 541C228.3 541 182.7 541 137 541C91.3 541 45.7 541 22.8 541L0 541Z" fill="#6c2716"></path><path d="M0 439L22.8 433.3C45.7 427.7 91.3 416.3 137 415.3C182.7 414.3 228.3 423.7 274 429C319.7 434.3 365.3 435.7 411.2 436.8C457 438 503 439 548.8 435.2C594.7 431.3 640.3 422.7 686 421.5C731.7 420.3 777.3 426.7 823 424.7C868.7 422.7 914.3 412.3 937.2 407.2L960 402L960 541L937.2 541C914.3 541 868.7 541 823 541C777.3 541 731.7 541 686 541C640.3 541 594.7 541 548.8 541C503 541 457 541 411.2 541C365.3 541 319.7 541 274 541C228.3 541 182.7 541 137 541C91.3 541 45.7 541 22.8 541L0 541Z" fill="#270f05"></path><path d="M0 447L22.8 451.8C45.7 456.7 91.3 466.3 137 471.7C182.7 477 228.3 478 274 473.2C319.7 468.3 365.3 457.7 411.2 459C457 460.3 503 473.7 548.8 472.2C594.7 470.7 640.3 454.3 686 451.8C731.7 449.3 777.3 460.7 823 466C868.7 471.3 914.3 470.7 937.2 470.3L960 470L960 541L937.2 541C914.3 541 868.7 541 823 541C777.3 541 731.7 541 686 541C640.3 541 594.7 541 548.8 541C503 541 457 541 411.2 541C365.3 541 319.7 541 274 541C228.3 541 182.7 541 137 541C91.3 541 45.7 541 22.8 541L0 541Z" fill="#6c2716"></path><path d="M0 497L22.8 495.7C45.7 494.3 91.3 491.7 137 487.5C182.7 483.3 228.3 477.7 274 475.3C319.7 473 365.3 474 411.2 477.3C457 480.7 503 486.3 548.8 492.2C594.7 498 640.3 504 686 502.5C731.7 501 777.3 492 823 487.2C868.7 482.3 914.3 481.7 937.2 481.3L960 481L960 541L937.2 541C914.3 541 868.7 541 823 541C777.3 541 731.7 541 686 541C640.3 541 594.7 541 548.8 541C503 541 457 541 411.2 541C365.3 541 319.7 541 274 541C228.3 541 182.7 541 137 541C91.3 541 45.7 541 22.8 541L0 541Z" fill="ed5617"></path></svg>